<svg width="21" height="21" viewBox="0 0 21 21" fill="none" xmlns="http://www.w3.org/2000/svg">
<path fill-rule="evenodd" clip-rule="evenodd" d="M9 7C9 4.79086 10.7909 3 13 3C15.2091 3 17 4.79086 17 7C17 9.20914 15.2091 11 13 11C10.7909 11 9 9.20914 9 7ZM13 5C11.8954 5 11 5.89543 11 7C11 8.10457 11.8954 9 13 9C14.1046 9 15 8.10457 15 7C15 5.89543 14.1046 5 13 5Z" fill="black"/>
<path d="M18.0238 17.2169L18.0206 17.2041C18.0166 17.1886 18.009 17.1603 17.9969 17.1208C17.9727 17.0418 17.9312 16.9197 17.8666 16.7689C17.7367 16.4658 17.5183 16.0579 17.1693 15.6508C16.4968 14.8662 15.2714 14 13 14C10.7286 14 9.50317 14.8662 8.83069 15.6508C8.48171 16.0579 8.26333 16.4658 8.13343 16.7689C8.06882 16.9197 8.02728 17.0418 8.00308 17.1208C7.99101 17.1603 7.98336 17.1886 7.97938 17.2041L7.97619 17.2169C7.85722 17.7527 7.32803 18.093 6.79047 17.9778C6.25045 17.8621 5.90648 17.3305 6.0222 16.7905C6.02493 16.7781 6.02246 16.7892 6.02246 16.7892L6.02275 16.7879L6.02338 16.785L6.02493 16.7781L6.02914 16.7597C6.03247 16.7456 6.03684 16.7276 6.04239 16.706C6.05348 16.6629 6.06926 16.6054 6.09068 16.5354C6.13344 16.3957 6.19904 16.2053 6.29514 15.9811C6.48667 15.5342 6.80401 14.9421 7.31217 14.3492C8.35397 13.1338 10.1286 12 13 12C15.8714 12 17.646 13.1338 18.6878 14.3492C19.196 14.9421 19.5133 15.5342 19.7049 15.9811C19.801 16.2053 19.8666 16.3957 19.9093 16.5354C19.9307 16.6054 19.9465 16.6629 19.9576 16.706C19.9632 16.7276 19.9675 16.7456 19.9709 16.7597L19.9751 16.7781L19.9766 16.785L19.9773 16.7879L19.9775 16.7892C19.9775 16.7892 19.9778 16.7905 19.9766 16.785L19.9778 16.7905C20.0935 17.3305 19.7496 17.8621 19.2095 17.9778C18.672 18.093 18.1428 17.7527 18.0238 17.2169Z" fill="black"/>
<path d="M4.5 6.5C5.05228 6.5 5.5 6.94772 5.5 7.5V9H7C7.55228 9 8 9.44772 8 10C8 10.5523 7.55228 11 7 11H5.5V12.5C5.5 13.0523 5.05228 13.5 4.5 13.5C3.94771 13.5 3.5 13.0523 3.5 12.5V11H2C1.44772 11 1 10.5523 1 10C1 9.44772 1.44772 9 2 9H3.5V7.5C3.5 6.94772 3.94772 6.5 4.5 6.5Z" fill="black"/>
</svg>
