<svg width="16" height="16" viewBox="0 0 16 16" fill="none" xmlns="http://www.w3.org/2000/svg">
<path fill-rule="evenodd" clip-rule="evenodd" d="M6.75 5.29762C6.75 3.64077 8.09315 2.29762 9.75 2.29762C11.4069 2.29762 12.75 3.64077 12.75 5.29762C12.75 6.95448 11.4069 8.29762 9.75 8.29762C8.09315 8.29762 6.75 6.95448 6.75 5.29762ZM9.75 3.79762C8.92157 3.79762 8.25 4.4692 8.25 5.29762C8.25 6.12605 8.92157 6.79762 9.75 6.79762C10.5784 6.79762 11.25 6.12605 11.25 5.29762C11.25 4.4692 10.5784 3.79762 9.75 3.79762Z" fill="black"/>
<path d="M6.23215 12.6627C6.14292 13.0645 5.74602 13.3197 5.34286 13.2334C4.93784 13.1466 4.67986 12.7479 4.76665 12.3429L4.76706 12.341L4.76754 12.3388L4.7687 12.3335L4.77186 12.3198C4.77435 12.3092 4.77764 12.2957 4.78179 12.2795C4.79011 12.2472 4.80195 12.204 4.81801 12.1516C4.85008 12.0468 4.89928 11.904 4.97136 11.7358C5.115 11.4006 5.35301 10.9566 5.73413 10.5119C6.51548 9.60033 7.84642 8.75 10 8.75C12.1536 8.75 13.4845 9.60033 14.2659 10.5119C14.647 10.9566 14.885 11.4006 15.0286 11.7358C15.1007 11.904 15.1499 12.0468 15.182 12.1516C15.1981 12.204 15.2099 12.2472 15.2182 12.2795C15.2224 12.2957 15.2257 12.3092 15.2281 12.3198L15.2313 12.3335L15.2325 12.3388C15.2313 12.3335 15.2332 12.3419 15.2332 12.3419C15.3199 12.747 15.0622 13.1466 14.6572 13.2334C14.254 13.3197 13.8571 13.0645 13.7679 12.6627L13.7655 12.6531C13.7625 12.6415 13.7567 12.6202 13.7477 12.5906C13.7295 12.5313 13.6984 12.4398 13.6499 12.3267C13.5525 12.0994 13.3887 11.7934 13.127 11.4881C12.6226 10.8997 11.7036 10.25 10 10.25C8.29644 10.25 7.37738 10.8997 6.87302 11.4881C6.61128 11.7934 6.4475 12.0994 6.35008 12.3267C6.30161 12.4398 6.27046 12.5313 6.25231 12.5906C6.24326 12.6202 6.23752 12.6415 6.23453 12.6531L6.23215 12.6627Z" fill="black"/>
<path d="M3.5 5.25C3.91421 5.25 4.25 5.58579 4.25 6V7.25H5.5C5.91421 7.25 6.25 7.58579 6.25 8C6.25 8.41421 5.91421 8.75 5.5 8.75H4.25V10C4.25 10.4142 3.91421 10.75 3.5 10.75C3.08579 10.75 2.75 10.4142 2.75 10L2.75 8.75H1.5C1.08579 8.75 0.75 8.41421 0.75 8C0.75 7.58579 1.08579 7.25 1.5 7.25H2.75L2.75 6C2.75 5.58579 3.08579 5.25 3.5 5.25Z" fill="black"/>
</svg>
