<svg width="24" height="24" viewBox="0 0 24 24" fill="none" xmlns="http://www.w3.org/2000/svg">
<path fill-rule="evenodd" clip-rule="evenodd" d="M10 8C10 5.23858 12.2386 3 15 3C17.7614 3 20 5.23858 20 8C20 10.7614 17.7614 13 15 13C12.2386 13 10 10.7614 10 8ZM15 5C13.3431 5 12 6.34315 12 8C12 9.65685 13.3431 11 15 11C16.6569 11 18 9.65685 18 8C18 6.34315 16.6569 5 15 5Z" fill="black"/>
<path d="M6 9C6 8.44772 5.55228 8 5 8C4.44772 8 4 8.44772 4 9V11H2C1.44772 11 1 11.4477 1 12C1 12.5523 1.44772 13 2 13H4V15C4 15.5523 4.44771 16 5 16C5.55228 16 6 15.5523 6 15V13H8C8.55228 13 9 12.5523 9 12C9 11.4477 8.55228 11 8 11H6V9Z" fill="black"/>
<path d="M7.02666 19.7696C7.03006 19.7542 7.03457 19.7344 7.04031 19.7105C7.05223 19.6608 7.0695 19.5933 7.09317 19.5104C7.14044 19.345 7.21365 19.117 7.32153 18.8474C7.53645 18.3101 7.89416 17.594 8.46913 16.8753C9.64424 15.4064 11.6735 14 15 14C18.3265 14 20.3558 15.4064 21.5309 16.8753C22.1059 17.594 22.4636 18.3101 22.6785 18.8474C22.7863 19.117 22.8596 19.345 22.9068 19.5104C22.9305 19.5933 22.9478 19.6608 22.9597 19.7105C22.9654 19.7344 22.97 19.7542 22.9733 19.7697C22.9908 19.8436 23 19.9207 23 20C23 20.5523 22.5523 21 22 21C21.5134 21 21.1079 20.6524 21.0184 20.1919L21.0149 20.1772C21.0093 20.1536 20.9992 20.1138 20.9838 20.0599C20.9529 19.9519 20.9012 19.7892 20.8215 19.5901C20.6614 19.1899 20.3942 18.656 19.9691 18.1247C19.1442 17.0936 17.6735 16 15 16C12.3265 16 10.8558 17.0936 10.0309 18.1247C9.60584 18.656 9.33856 19.1899 9.17848 19.5901C9.09885 19.7892 9.04707 19.9519 9.01621 20.0599C9.00082 20.1138 8.99075 20.1536 8.98508 20.1772L8.98118 20.1941C8.89082 20.6535 8.48588 21 8 21C7.44772 21 7 20.5523 7 20C7 19.9207 7.00923 19.8436 7.02666 19.7696Z" fill="black"/>
</svg>
