<svg width="20" height="20" viewBox="0 0 20 20" fill="none" xmlns="http://www.w3.org/2000/svg">
<path d="M10 7C10.5523 7 11 7.44772 11 8V10.5C11 11.0523 10.5523 11.5 10 11.5C9.44772 11.5 9 11.0523 9 10.5V8C9 7.44772 9.44772 7 10 7Z" fill="black"/>
<path d="M10 14.5C10.5523 14.5 11 14.0523 11 13.5C11 12.9477 10.5523 12.5 10 12.5C9.44772 12.5 9 12.9477 9 13.5C9 14.0523 9.44772 14.5 10 14.5Z" fill="black"/>
<path fill-rule="evenodd" clip-rule="evenodd" d="M15.3258 18H4.67421C2.40419 18 0.95658 15.5764 2.0328 13.5777L7.35858 3.68695C8.49129 1.58336 11.5087 1.58335 12.6414 3.68695L17.9672 13.5777C19.0434 15.5764 17.5958 18 15.3258 18ZM4.67421 16H15.3258C16.0825 16 16.565 15.1921 16.2062 14.5259L10.8805 4.63515C10.5029 3.93395 9.4971 3.93395 9.11953 4.63515L3.79374 14.5259C3.435 15.1921 3.91754 16 4.67421 16Z" fill="black"/>
</svg>
