<svg width="16" height="16" viewBox="0 0 16 16" fill="none" xmlns="http://www.w3.org/2000/svg">
<path d="M8 5.60001C8.41421 5.60001 8.75 5.93579 8.75 6.35001V8.25001C8.75 8.66422 8.41421 9.00001 8 9.00001C7.58579 9.00001 7.25 8.66422 7.25 8.25001V6.35001C7.25 5.93579 7.58579 5.60001 8 5.60001Z" fill="black"/>
<path d="M7.99999 11.7C8.46944 11.7 8.84999 11.3194 8.84999 10.85C8.84999 10.3806 8.46944 10 7.99999 10C7.53055 10 7.14999 10.3806 7.14999 10.85C7.14999 11.3194 7.53055 11.7 7.99999 11.7Z" fill="black"/>
<path fill-rule="evenodd" clip-rule="evenodd" d="M12.1298 14.4977H3.47016C1.59942 14.4977 0.362339 12.4908 1.2689 10.802L5.59873 2.73634C6.54259 0.978103 9.0574 0.978104 10.0013 2.73634L14.3311 10.802C15.2376 12.4908 14.0006 14.4977 12.1298 14.4977ZM3.47016 12.9884H12.1298C12.8856 12.9884 13.3682 12.184 13.0113 11.5192L8.68147 3.45358C8.30449 2.75133 7.2955 2.75133 6.91851 3.45358L2.58868 11.5193C2.23181 12.184 2.71443 12.9884 3.47016 12.9884Z" fill="black"/>
</svg>
