<svg width="24" height="24" viewBox="0 0 24 24" fill="none" xmlns="http://www.w3.org/2000/svg">
<path d="M14.6514 3.7336L21.9905 17.5963C23.0482 19.5943 21.5998 22 19.3391 22H4.66091C2.40019 22 0.951781 19.5943 2.00955 17.5963L9.34864 3.73361C10.4755 1.60516 13.5245 1.60515 14.6514 3.7336L12.8838 4.66938C12.5945 4.12288 11.925 3.99734 11.461 4.29275C11.3226 4.38085 11.2025 4.5064 11.1162 4.66938L3.77712 18.5321C3.42454 19.1981 3.90734 20 4.66091 20H19.3391C20.0927 20 20.5755 19.1981 20.2229 18.5321L12.8838 4.66938L14.6514 3.7336Z" fill="black"/>
<path d="M12 8C12.5523 8 13 8.44772 13 9V13C13 13.5523 12.5523 14 12 14C11.4477 14 11 13.5523 11 13V9C11 8.44772 11.4477 8 12 8Z" fill="black"/>
<path d="M12 18C12.6627 18 13.2 17.4627 13.2 16.8C13.2 16.1373 12.6627 15.6 12 15.6C11.3372 15.6 10.8 16.1373 10.8 16.8C10.8 17.4627 11.3372 18 12 18Z" fill="black"/>
</svg>
