<svg width="20" height="20" viewBox="0 0 20 20" xmlns="http://www.w3.org/2000/svg">
<path d="M5.70711 4.29289C5.31658 3.90237 4.68342 3.90237 4.29289 4.29289C3.90237 4.68342 3.90237 5.31658 4.29289 5.70711L8.58579 10L4.29289 14.2929C3.90237 14.6834 3.90237 15.3166 4.29289 15.7071C4.68342 16.0976 5.31658 16.0976 5.70711 15.7071L10 11.4142L14.2929 15.7071C14.6834 16.0976 15.3166 16.0976 15.7071 15.7071C16.0976 15.3166 16.0976 14.6834 15.7071 14.2929L11.4142 10L15.7071 5.70711C16.0976 5.31658 16.0976 4.68342 15.7071 4.29289C15.3166 3.90237 14.6834 3.90237 14.2929 4.29289L10 8.58579L5.70711 4.29289Z"/>
</svg>
