<svg width="16" height="16" viewBox="0 0 16 16" fill="none" xmlns="http://www.w3.org/2000/svg">
<path d="M9 10.5C9 11.0523 8.55228 11.5 8 11.5C7.44772 11.5 7 11.0523 7 10.5C7 9.94771 7.44772 9.5 8 9.5C8.55228 9.5 9 9.94771 9 10.5Z" fill="black"/>
<path fill-rule="evenodd" clip-rule="evenodd" d="M4.75 6V4.25C4.75 2.45507 6.20507 1 8 1C9.79493 1 11.25 2.45507 11.25 4.25V6H12.25C13.2165 6 14 6.7835 14 7.75V13.25C14 14.2165 13.2165 15 12.25 15H3.75C2.7835 15 2 14.2165 2 13.25V7.75C2 6.7835 2.7835 6 3.75 6H4.75ZM6.25 4.25C6.25 3.2835 7.0335 2.5 8 2.5C8.9665 2.5 9.75 3.2835 9.75 4.25V6H6.25V4.25ZM3.75 7.5C3.61193 7.5 3.5 7.61193 3.5 7.75V13.25C3.5 13.3881 3.61193 13.5 3.75 13.5H12.25C12.3881 13.5 12.5 13.3881 12.5 13.25V7.75C12.5 7.61193 12.3881 7.5 12.25 7.5H3.75Z" fill="black"/>
</svg>
