<svg width="24" height="24" viewBox="0 0 24 24" fill="none" xmlns="http://www.w3.org/2000/svg">
<path d="M14 15.5C14 16.6046 13.1046 17.5 12 17.5C10.8954 17.5 10 16.6046 10 15.5C10 14.3954 10.8954 13.5 12 13.5C13.1046 13.5 14 14.3954 14 15.5Z" fill="black"/>
<path fill-rule="evenodd" clip-rule="evenodd" d="M7 9V7C7 4.23858 9.23858 2 12 2C14.7614 2 17 4.23858 17 7V9H18C19.6569 9 21 10.3431 21 12V19C21 20.6569 19.6569 22 18 22H6C4.34315 22 3 20.6569 3 19V12C3 10.3431 4.34315 9 6 9H7ZM9 7C9 5.34315 10.3431 4 12 4C13.6569 4 15 5.34315 15 7V9H9V7ZM6 11C5.44772 11 5 11.4477 5 12V19C5 19.5523 5.44772 20 6 20H18C18.5523 20 19 19.5523 19 19V12C19 11.4477 18.5523 11 18 11H6Z" fill="black"/>
</svg>
