<svg width="20" height="20" viewBox="0 0 20 20" fill="none" xmlns="http://www.w3.org/2000/svg">
<path d="M11.5 12.5C11.5 13.3284 10.8284 14 10 14C9.17157 14 8.5 13.3284 8.5 12.5C8.5 11.6716 9.17157 11 10 11C10.8284 11 11.5 11.6716 11.5 12.5Z" fill="black"/>
<path fill-rule="evenodd" clip-rule="evenodd" d="M6 7V6C6 3.79086 7.79086 2 10 2C12.2091 2 14 3.79086 14 6V7H14.5C15.8807 7 17 8.11929 17 9.5V15.5C17 16.8807 15.8807 18 14.5 18H5.5C4.11929 18 3 16.8807 3 15.5V9.5C3 8.11929 4.11929 7 5.5 7H6ZM8 6C8 4.89543 8.89543 4 10 4C11.1046 4 12 4.89543 12 6V7H8V6ZM5.5 9C5.22386 9 5 9.22386 5 9.5V15.5C5 15.7761 5.22386 16 5.5 16H14.5C14.7761 16 15 15.7761 15 15.5V9.5C15 9.22386 14.7761 9 14.5 9H5.5Z" fill="black"/>
</svg>
