<svg width="16" height="16" viewBox="0 0 16 16" fill="none" xmlns="http://www.w3.org/2000/svg">
<path d="M9 10C9 10.5523 8.55228 11 8 11C7.44772 11 7 10.5523 7 10C7 9.44772 7.44772 9 8 9C8.55228 9 9 9.44772 9 10Z" fill="black"/>
<path fill-rule="evenodd" clip-rule="evenodd" d="M4.75 6V5.25C4.75 3.45507 6.20507 2 8 2C9.79493 2 11.25 3.45507 11.25 5.25V6C12.2165 6 13 6.7835 13 7.75V12.25C13 13.2165 12.2165 14 11.25 14H4.75C3.7835 14 3 13.2165 3 12.25V7.75C3 6.7835 3.7835 6 4.75 6ZM6.25 5.25C6.25 4.2835 7.0335 3.5 8 3.5C8.9665 3.5 9.75 4.2835 9.75 5.25V6H6.25V5.25ZM4.75 7.5C4.61193 7.5 4.5 7.61193 4.5 7.75V12.25C4.5 12.3881 4.61193 12.5 4.75 12.5H11.25C11.3881 12.5 11.5 12.3881 11.5 12.25V7.75C11.5 7.61193 11.3881 7.5 11.25 7.5H4.75Z" fill="black"/>
</svg>
