<svg width="20" height="20" viewBox="0 0 20 20" fill="none" xmlns="http://www.w3.org/2000/svg">
<path d="M10 14C10.8284 14 11.5 13.3284 11.5 12.5C11.5 11.6716 10.8284 11 10 11C9.17157 11 8.5 11.6716 8.5 12.5C8.5 13.3284 9.17157 14 10 14Z" fill="black"/>
<path fill-rule="evenodd" clip-rule="evenodd" d="M17 10C17 8.34315 15.6569 7 14 7V5C14 2.79086 12.2091 1 10 1C7.79086 1 6 2.79086 6 5V7C4.34315 7 3 8.34315 3 10V15C3 16.6569 4.34315 18 6 18H14C15.6569 18 17 16.6569 17 15V10ZM10 3C8.89543 3 8 3.89543 8 5V7H12V5C12 3.89543 11.1046 3 10 3ZM6 9C5.44772 9 5 9.44772 5 10V15C5 15.5523 5.44772 16 6 16H14C14.5523 16 15 15.5523 15 15V10C15 9.44772 14.5523 9 14 9H6Z" fill="black"/>
</svg>
