<svg width="16" height="16" viewBox="0 0 16 16" xmlns="http://www.w3.org/2000/svg">
<path fill-rule="evenodd" clip-rule="evenodd" d="M5.5 2.5C4.39543 2.5 3.5 3.39543 3.5 4.5C3.5 5.60457 4.39543 6.5 5.5 6.5C6.60457 6.5 7.5 5.60457 7.5 4.5C7.5 3.39543 6.60457 2.5 5.5 2.5ZM2 4.5C2 2.567 3.567 1 5.5 1C7.433 1 9 2.567 9 4.5C9 6.433 7.433 8 5.5 8C3.567 8 2 6.433 2 4.5Z"/>
<path fill-rule="evenodd" clip-rule="evenodd" d="M10 4.75C10 4.33579 10.3358 4 10.75 4C12.1307 4 13.25 5.11929 13.25 6.5C13.25 7.58969 12.5533 8.51471 11.5833 8.85755C11.1927 8.99559 10.7642 8.79089 10.6262 8.40036C10.4882 8.00982 10.6929 7.58133 11.0834 7.44329C11.4728 7.30566 11.75 6.93423 11.75 6.5C11.75 5.94772 11.3023 5.5 10.75 5.5C10.3358 5.5 10 5.16421 10 4.75Z"/>
<path fill-rule="evenodd" clip-rule="evenodd" d="M1.5 13.251L1.49998 13.2561L1.49999 13.2534L1.5 13.251ZM9.50002 13.2561L9.49961 13.2446C9.49899 13.2309 9.49754 13.2062 9.49422 13.172C9.48756 13.1032 9.47353 12.998 9.44426 12.8686C9.38532 12.608 9.26772 12.2631 9.03564 11.9211C8.60041 11.2797 7.66215 10.5 5.5 10.5C3.33785 10.5 2.39959 11.2797 1.96436 11.9211C1.73228 12.2631 1.61468 12.608 1.55574 12.8686C1.52647 12.998 1.51244 13.1032 1.50578 13.172C1.50246 13.2062 1.50101 13.2309 1.50039 13.2446L1.49998 13.2561C1.49671 13.6675 1.16218 14 0.75 14C0.335786 14 0 13.6642 0 13.25L7.15256e-07 13.249L2.92063e-06 13.2478L1.29938e-05 13.2454L6.16312e-05 13.2394L0.000324547 13.2235C0.000593007 13.2113 0.00107425 13.1956 0.00192595 13.1768C0.00362808 13.1392 0.00681758 13.0887 0.0127766 13.0272C0.0246691 12.9046 0.0477482 12.7364 0.0926984 12.5377C0.182196 12.142 0.36147 11.6119 0.723143 11.0789C1.47541 9.97027 2.91215 9 5.5 9C8.08785 9 9.52459 9.97027 10.2769 11.0789C10.6385 11.6119 10.8178 12.142 10.9073 12.5377C10.9523 12.7364 10.9753 12.9046 10.9872 13.0272C10.9932 13.0887 10.9964 13.1392 10.9981 13.1768C10.9989 13.1956 10.9994 13.2113 10.9997 13.2235L10.9999 13.2394L11 13.2454L11 13.2478L11 13.25C11 13.6642 10.6642 14 10.25 14C9.83782 14 9.5033 13.6675 9.50002 13.2561Z"/>
<path fill-rule="evenodd" clip-rule="evenodd" d="M11.0041 10.6713C11.0476 10.2594 11.4168 9.96068 11.8287 10.0041C13.346 10.1642 14.1806 10.9528 14.6008 11.7488C14.8015 12.1291 14.8998 12.4939 14.9487 12.7616C14.9734 12.8967 14.9862 13.0106 14.9928 13.0942C14.9961 13.1361 14.9979 13.1707 14.9989 13.197C14.9994 13.2101 14.9996 13.2212 14.9998 13.2301L15 13.2417L15 13.2463L15 13.2483L15 13.25C15 13.6642 14.6642 14 14.25 14C13.8379 14 13.5034 13.6676 13.5 13.2563L13.4999 13.2526C13.4997 13.246 13.499 13.2323 13.4975 13.2126C13.4943 13.1729 13.4875 13.11 13.4732 13.0313C13.444 12.8715 13.386 12.6608 13.2742 12.449C13.0694 12.0609 12.654 11.5995 11.6713 11.4959C11.2594 11.4524 10.9607 11.0832 11.0041 10.6713Z"/>
</svg>
