<svg width="20" height="20" viewBox="0 0 20 20" fill="none" xmlns="http://www.w3.org/2000/svg">
<path fill-rule="evenodd" clip-rule="evenodd" d="M6.5 3C5.11929 3 4 4.11929 4 5.5C4 6.88071 5.11929 8 6.5 8C7.88071 8 9 6.88071 9 5.5C9 4.11929 7.88071 3 6.5 3ZM2 5.5C2 3.01472 4.01472 1 6.5 1C8.98528 1 11 3.01472 11 5.5C11 7.98528 8.98528 10 6.5 10C4.01472 10 2 7.98528 2 5.5Z" fill="black"/>
<path fill-rule="evenodd" clip-rule="evenodd" d="M12 5C12 4.44772 12.4477 4 13 4C14.933 4 16.5 5.567 16.5 7.5C16.5 9.02548 15.5246 10.3206 14.1666 10.8006C13.6459 10.9846 13.0745 10.7117 12.8905 10.191C12.7064 9.67027 12.9794 9.09895 13.5001 8.9149C14.084 8.70851 14.5 8.15155 14.5 7.5C14.5 6.67157 13.8284 6 13 6C12.4477 6 12 5.55228 12 5Z" fill="black"/>
<path fill-rule="evenodd" clip-rule="evenodd" d="M2 17.001L1.99999 17.0047L2.00001 17.0034L2.00067 16.9805C2.00154 16.9568 2.00346 16.9171 2.00767 16.8635C2.01612 16.756 2.0336 16.5951 2.06955 16.3991C2.14221 16.0027 2.28582 15.4872 2.56372 14.9819C2.83851 14.4823 3.24053 13.9989 3.83862 13.6364C4.4348 13.2751 5.28158 13 6.5 13C7.71842 13 8.5652 13.2751 9.16139 13.6364C9.75948 13.9989 10.1615 14.4823 10.4363 14.9819C10.7142 15.4872 10.8578 16.0027 10.9305 16.3991C10.9664 16.5951 10.9839 16.756 10.9923 16.8635C10.9965 16.9171 10.9985 16.9568 10.9993 16.9805L11 17.0034V17.0019V17.0046C11.0025 17.5548 11.4493 18 12 18C12.5523 18 13 17.5523 13 17V16.9948L12.9999 16.9876L12.9997 16.9679C12.9994 16.9524 12.9989 16.932 12.998 16.9072C12.9962 16.8576 12.9927 16.79 12.9862 16.7068C12.9731 16.5409 12.9477 16.3111 12.8977 16.0384C12.7985 15.4973 12.5983 14.7628 12.1887 14.0181C11.776 13.2677 11.1468 12.5011 10.198 11.9261C9.2473 11.3499 8.03158 11 6.5 11C4.96842 11 3.7527 11.3499 2.80201 11.9261C1.85323 12.5011 1.224 13.2677 0.811285 14.0181C0.401679 14.7628 0.201546 15.4973 0.102332 16.0384C0.0523363 16.3111 0.0268543 16.5409 0.0138161 16.7068C0.00728327 16.79 0.00383407 16.8576 0.00201577 16.9072C0.00110602 16.932 0.000602663 16.9524 0.000326633 16.9679L6.04987e-05 16.9876L1.3411e-05 16.9948L4.11272e-06 16.9976L0 17C0 17.5523 0.447717 18 1 18C1.55072 18 1.99746 17.5548 1.99999 17.0047L2.00001 17.0034L2 17.001Z" fill="black"/>
<path fill-rule="evenodd" clip-rule="evenodd" d="M13.0055 12.8951C13.0635 12.3459 13.5557 11.9476 14.1049 12.0055C16.4613 12.2541 17.7408 13.4722 18.3844 14.6914C18.6936 15.2774 18.8456 15.8406 18.9212 16.2546C18.9593 16.4632 18.9789 16.6386 18.9891 16.7665C18.9941 16.8306 18.9969 16.8832 18.9983 16.9226C18.9991 16.9423 18.9995 16.9588 18.9997 16.9717L18.9999 16.9885L19 16.9949V16.9989C19 16.9989 18.9885 16.9885 19 17C19 17.5523 18.5523 18 18 18C17.4501 18 17.0039 17.5562 17 17.0072L16.9997 16.9968C16.9992 16.9836 16.998 16.9589 16.9953 16.9244C16.9898 16.855 16.9782 16.7476 16.9538 16.6141C16.9044 16.344 16.8064 15.9863 16.6156 15.625C16.2592 14.9497 15.5387 14.1679 13.8951 13.9945C13.3459 13.9365 12.9476 13.4443 13.0055 12.8951Z" fill="black"/>
</svg>
