<svg width="24" height="24" viewBox="0 0 24 24" fill="none" xmlns="http://www.w3.org/2000/svg">
<path fill-rule="evenodd" clip-rule="evenodd" d="M8 4C6.34315 4 5 5.34315 5 7C5 8.65685 6.34315 10 8 10C9.65685 10 11 8.65685 11 7C11 5.34315 9.65685 4 8 4ZM3 7C3 4.23858 5.23858 2 8 2C10.7614 2 13 4.23858 13 7C13 9.76142 10.7614 12 8 12C5.23858 12 3 9.76142 3 7Z" fill="black"/>
<path fill-rule="evenodd" clip-rule="evenodd" d="M14 6C14 5.44772 14.4477 5 15 5C17.2091 5 19 6.79086 19 9C19 10.7432 17.8855 12.2235 16.3332 12.7721C15.8125 12.9562 15.2412 12.6833 15.0572 12.1625C14.8731 11.6418 15.146 11.0705 15.6668 10.8865C16.4449 10.6114 17 9.86925 17 9C17 7.89543 16.1046 7 15 7C14.4477 7 14 6.55228 14 6Z" fill="black"/>
<path fill-rule="evenodd" clip-rule="evenodd" d="M2 20.0011C1.99942 20.5529 1.55193 21 1 21C0.447715 21 0 20.5523 0 20L7.15256e-07 19.9988L3.03984e-06 19.9974L1.38879e-05 19.9943L6.95586e-05 19.9864L0.000390649 19.964C0.000725925 19.9462 0.00134176 19.9226 0.00246429 19.8938C0.00470811 19.8361 0.00898468 19.7568 0.0171261 19.6591C0.0333793 19.4641 0.0652105 19.1933 0.12776 18.8716C0.252112 18.2321 0.502314 17.3685 1.01122 16.4961C2.06714 14.686 4.14775 13 8 13C11.8523 13 13.9329 14.686 14.9888 16.4961C15.4977 17.3685 15.7479 18.2321 15.8722 18.8716C15.9348 19.1933 15.9666 19.4641 15.9829 19.6591C15.991 19.7568 15.9953 19.8361 15.9975 19.8938C15.9987 19.9226 15.9993 19.9462 15.9996 19.964L15.9999 19.9864L16 19.9943L16 19.9974L16 20C16 20.5523 15.5523 21 15 21C14.4492 21 14.0024 20.5547 14 20.0044L14 20.0016C13.9999 19.9967 13.9996 19.9866 13.999 19.9715C13.9979 19.9413 13.9953 19.8916 13.9898 19.8252C13.9787 19.6921 13.9558 19.4942 13.909 19.2534C13.8146 18.7679 13.6273 18.1315 13.2612 17.5039C12.5671 16.314 11.1477 15 8 15C4.85225 15 3.43286 16.314 2.73878 17.5039C2.37269 18.1315 2.18539 18.7679 2.09099 19.2534C2.04416 19.4942 2.02131 19.6921 2.01022 19.8252C2.00469 19.8916 2.00213 19.9413 2.00095 19.9715C2.00037 19.9866 2.00009 19.9962 2 20.0011Z" fill="black"/>
<path fill-rule="evenodd" clip-rule="evenodd" d="M16.0055 14.8951C16.0635 14.3459 16.5557 13.9476 17.1049 14.0055C19.9613 14.3068 21.4908 15.775 22.2594 17.231C22.6311 17.9353 22.8143 18.6136 22.9056 19.1132C22.9515 19.3645 22.975 19.5753 22.9871 19.7279C22.9932 19.8043 22.9964 19.8666 22.9981 19.9125C22.9989 19.9355 22.9994 19.9545 22.9997 19.9692L22.9999 19.9879L23 19.9948L23 19.9976L23 19.9989V20C23 20.5523 22.5523 21 22 21C21.4495 21 21.0029 20.5552 21 20.0054L20.9382 16.8516M20.9382 16.8516L21 20.0054L20.9995 19.9867C20.9987 19.9669 20.9971 19.9326 20.9934 19.8857C20.9859 19.7917 20.9704 19.6489 20.9382 19.4727C20.8732 19.1171 20.7439 18.6443 20.4906 18.1646C20.0092 17.2525 19.0387 16.2206 16.8951 15.9945C16.3459 15.9365 15.9476 15.4443 16.0055 14.8951" fill="black"/>
</svg>
