<svg width="16" height="16" viewBox="0 0 16 16" fill="none" xmlns="http://www.w3.org/2000/svg">
<path fill-rule="evenodd" clip-rule="evenodd" d="M8 3.5C6.89543 3.5 6 4.39543 6 5.5C6 6.60457 6.89543 7.5 8 7.5C9.10457 7.5 10 6.60457 10 5.5C10 4.39543 9.10457 3.5 8 3.5ZM4.5 5.5C4.5 3.567 6.067 2 8 2C9.933 2 11.5 3.567 11.5 5.5C11.5 7.433 9.933 9 8 9C6.067 9 4.5 7.433 4.5 5.5Z" fill="black"/>
<path fill-rule="evenodd" clip-rule="evenodd" d="M3.96807 13.4665C3.96728 13.4691 3.96647 13.4718 3.96566 13.4744C3.84311 13.8656 3.42827 14.0865 3.03449 13.9684C2.63774 13.8493 2.41261 13.4312 2.53163 13.0345L2.53474 13.0244C2.53302 13.0299 2.53195 13.0334 2.53195 13.0334L2.53229 13.0323L2.53302 13.0299L2.53474 13.0244L2.53917 13.0105C2.54257 13 2.5469 12.9872 2.55224 12.9721C2.56292 12.9418 2.57766 12.9026 2.59715 12.8555C2.63609 12.7615 2.69423 12.636 2.77717 12.4896C2.94306 12.1969 3.20936 11.8188 3.6205 11.445C4.45711 10.6845 5.82893 10 8 10C10.1711 10 11.5429 10.6845 12.3795 11.445C12.7906 11.8188 13.0569 12.1969 13.2228 12.4896C13.3058 12.636 13.3639 12.7615 13.4029 12.8555C13.4223 12.9026 13.4371 12.9418 13.4478 12.9721C13.4531 12.9872 13.4574 13 13.4608 13.0105L13.4653 13.0244L13.467 13.0299L13.4677 13.0323L13.4681 13.0334C13.4681 13.0334 13.4653 13.0244 13.4677 13.0323L13.4684 13.0345C13.5874 13.4312 13.3623 13.8493 12.9655 13.9684C12.5717 14.0865 12.1569 13.8656 12.0343 13.4744L12.0334 13.4718C12.0312 13.4654 12.0259 13.451 12.0171 13.4296C11.9994 13.3869 11.9677 13.3171 11.9178 13.2291C11.8181 13.0531 11.6469 12.8062 11.3705 12.555C10.8321 12.0655 9.82893 11.5 8 11.5C6.17107 11.5 5.16789 12.0655 4.6295 12.555C4.35314 12.8062 4.18194 13.0531 4.0822 13.2291C4.03233 13.3171 4.00063 13.3869 3.98293 13.4296C3.9741 13.451 3.96882 13.4654 3.96656 13.4718L3.96725 13.4692L3.96807 13.4665Z" fill="black"/>
</svg>
