<svg width="24" height="24" viewBox="0 0 24 24" fill="none" xmlns="http://www.w3.org/2000/svg">
<path fill-rule="evenodd" clip-rule="evenodd" d="M12 4C9.79086 4 8 5.79086 8 8C8 10.2091 9.79086 12 12 12C14.2091 12 16 10.2091 16 8C16 5.79086 14.2091 4 12 4ZM6 8C6 4.68629 8.68629 2 12 2C15.3137 2 18 4.68629 18 8C18 11.3137 15.3137 14 12 14C8.68629 14 6 11.3137 6 8Z" fill="black"/>
<path fill-rule="evenodd" clip-rule="evenodd" d="M4.98033 21.1973L4.9792 21.2029L4.97971 21.2004L4.98011 21.1985L4.98033 21.1973ZM19.0208 21.2029L19.0203 21.2004L19.0208 21.2029ZM19.0208 21.2029C19.1322 21.7406 19.6568 22.0884 20.1961 21.9806C20.7377 21.8723 21.0889 21.3454 20.9806 20.8039L20.9803 20.8025L20.9793 20.7978L20.9777 20.7898L20.973 20.7684C20.9693 20.7517 20.9644 20.7303 20.958 20.7044C20.9452 20.6526 20.9267 20.5829 20.9012 20.4978C20.8502 20.3279 20.7708 20.0953 20.6519 19.8211C20.4147 19.2737 20.0168 18.5516 19.3683 17.831C18.0451 16.3608 15.7704 15 12 15C8.22958 15 5.95492 16.3608 4.63171 17.831C3.98318 18.5516 3.58528 19.2737 3.34807 19.8211C3.22925 20.0953 3.14979 20.3279 3.09881 20.4978C3.07329 20.5829 3.05481 20.6526 3.04204 20.7044C3.03565 20.7303 3.03068 20.7517 3.02697 20.7684L3.02232 20.7898L3.02066 20.7978L3.01999 20.8011C2.91167 21.3426 3.26232 21.8723 3.80388 21.9806C4.34318 22.0884 4.86786 21.7406 4.9792 21.2029L4.98384 21.1833C4.98913 21.1619 4.99897 21.1242 5.01447 21.0725C5.04552 20.969 5.09888 20.8109 5.18318 20.6164C5.35222 20.2263 5.64182 19.6984 6.11829 19.169C7.04508 18.1392 8.77042 17 12 17C15.2296 17 16.9549 18.1392 17.8817 19.169C18.3582 19.6984 18.6478 20.2263 18.8168 20.6164C18.9011 20.8109 18.9545 20.969 18.9855 21.0725C19.001 21.1242 19.0109 21.1619 19.0162 21.1833L19.0208 21.2029Z" fill="black"/>
</svg>
