<svg width="20" height="20" viewBox="0 0 20 20" xmlns="http://www.w3.org/2000/svg">
<path fill-rule="evenodd" clip-rule="evenodd" d="M10 4C8.34315 4 7 5.34315 7 7C7 8.65685 8.34315 10 10 10C11.6569 10 13 8.65685 13 7C13 5.34315 11.6569 4 10 4ZM5 7C5 4.23858 7.23858 2 10 2C12.7614 2 15 4.23858 15 7C15 9.76142 12.7614 12 10 12C7.23858 12 5 9.76142 5 7Z"/>
<path fill-rule="evenodd" clip-rule="evenodd" d="M4.95691 17.2904C4.79887 17.8118 4.25107 18.1117 3.72528 17.9615C3.19424 17.8098 2.88675 17.2563 3.03848 16.7253L3.03891 16.7238L3.03937 16.7222L3.04036 16.7187L3.04264 16.7111L3.04837 16.6924C3.05274 16.6784 3.05822 16.6616 3.06494 16.642C3.07836 16.6028 3.09674 16.5527 3.12103 16.4932C3.16957 16.3743 3.24199 16.2172 3.34604 16.0351C3.55444 15.6704 3.89002 15.205 4.41292 14.7474C5.47599 13.8172 7.21972 13 10 13C12.7803 13 14.524 13.8172 15.5871 14.7474C16.11 15.205 16.4456 15.6704 16.654 16.0351C16.758 16.2172 16.8304 16.3743 16.879 16.4932C16.9033 16.5527 16.9216 16.6028 16.9351 16.642C16.9418 16.6616 16.9473 16.6784 16.9516 16.6924L16.9574 16.7111L16.9596 16.7187L16.9606 16.7222L16.9611 16.7238C16.9611 16.7238 16.9596 16.7187 16.9516 16.6924L16.9615 16.7253C17.1132 17.2563 16.8058 17.8098 16.2747 17.9615C15.7489 18.1118 15.2011 17.8118 15.0431 17.2904C15.0413 17.2853 15.0363 17.2711 15.0273 17.249C15.0088 17.2038 14.9741 17.1265 14.9175 17.0274C14.8044 16.8296 14.6043 16.545 14.2701 16.2526C13.6188 15.6828 12.3626 15 10 15C7.63743 15 6.38115 15.6828 5.72993 16.2526C5.3957 16.545 5.19556 16.8296 5.08253 17.0274C5.02587 17.1265 4.99115 17.2038 4.97272 17.249C4.96368 17.2711 4.95864 17.2854 4.95691 17.2904Z"/>
</svg>
