<svg width="16" height="16" viewBox="0 0 16 16" fill="none" xmlns="http://www.w3.org/2000/svg">
<path fill-rule="evenodd" clip-rule="evenodd" d="M9.30632 10.6388C8.5062 11.1824 7.5402 11.5 6.5 11.5C3.73858 11.5 1.5 9.26142 1.5 6.5C1.5 3.73858 3.73858 1.5 6.5 1.5C9.26142 1.5 11.5 3.73858 11.5 6.5C11.5 7.68088 11.0906 8.76615 10.4061 9.62163C10.4084 9.62393 10.4108 9.62624 10.4131 9.62858L13.5303 12.7458C13.8232 13.0387 13.8232 13.5136 13.5303 13.8065C13.2374 14.0994 12.7625 14.0994 12.4697 13.8065L9.35243 10.6892C9.33615 10.673 9.32078 10.6561 9.30632 10.6388ZM10 6.5C10 8.433 8.433 10 6.5 10C4.567 10 3 8.433 3 6.5C3 4.567 4.567 3 6.5 3C8.433 3 10 4.567 10 6.5Z" fill="black"/>
</svg>
