<svg width="24" height="24" viewBox="0 0 24 24" fill="none" xmlns="http://www.w3.org/2000/svg">
<path fill-rule="evenodd" clip-rule="evenodd" d="M14.6687 16.4971C13.3548 17.4429 11.7425 18 10 18C5.58172 18 2 14.4183 2 10C2 5.58172 5.58172 2 10 2C14.4183 2 18 5.58172 18 10C18 11.9545 17.2991 13.7454 16.1349 15.1348L20.7071 19.7071C21.0976 20.0976 21.0976 20.7308 20.7071 21.1213C20.3166 21.5118 19.6834 21.5118 19.2929 21.1213L14.6687 16.4971ZM16 10C16 13.3137 13.3137 16 10 16C6.68629 16 4 13.3137 4 10C4 6.68629 6.68629 4 10 4C13.3137 4 16 6.68629 16 10Z" fill="black"/>
</svg>
