<svg width="20" height="20" viewBox="0 0 20 20" fill="none" xmlns="http://www.w3.org/2000/svg">
<path fill-rule="evenodd" clip-rule="evenodd" d="M12.132 13.8914C11.095 14.5913 9.84524 15 8.5 15C4.91015 15 2 12.0899 2 8.5C2 4.91015 4.91015 2 8.5 2C12.0899 2 15 4.91015 15 8.5C15 10.0225 14.4765 11.4228 13.5997 12.5307L17.0814 16.0123C17.4719 16.4029 17.4719 17.036 17.0814 17.4266C16.6909 17.8171 16.0577 17.8171 15.6672 17.4266L12.132 13.8914ZM13 8.5C13 10.9853 10.9853 13 8.5 13C6.01472 13 4 10.9853 4 8.5C4 6.01472 6.01472 4 8.5 4C10.9853 4 13 6.01472 13 8.5Z" fill="black"/>
</svg>
